<svg width="92" height="113" viewBox="0 0 92 113" fill="none" xmlns="http://www.w3.org/2000/svg">
<path d="M45.1067 46.5933L86.6761 2.79527L89.3291 0H0.884346L3.53842 2.79527L45.1067 46.5933Z" fill="#4583C4"/>
<path d="M42.4537 49.3886L4.24527 7.45516L0 2.79527V95.982L4.24527 91.3221L42.4537 49.3886Z" fill="#FEEB17"/>
<path d="M45.1067 52.1839L3.53842 95.982L0.884346 98.7772H89.3291L86.6761 95.982L45.1067 52.1839Z" fill="#CD1844"/>
<path d="M10.5087 112.778L10.4855 111.945C10.2072 112.248 9.87729 112.493 9.51298 112.667C9.18487 112.814 8.83184 112.889 8.47529 112.888C8.18333 112.896 7.89233 112.85 7.61511 112.753C7.396 112.675 7.19568 112.547 7.028 112.379C6.87582 112.225 6.7597 112.036 6.68875 111.826C6.61639 111.602 6.58087 111.366 6.58372 111.13C6.58372 110.51 6.80288 110.025 7.2412 109.674C7.67952 109.322 8.32755 109.147 9.18529 109.147H10.4005V108.605C10.4075 108.442 10.3814 108.279 10.324 108.128C10.2666 107.977 10.1791 107.84 10.0675 107.727C9.84557 107.506 9.50633 107.395 9.0498 107.395C8.72072 107.394 8.39265 107.433 8.07198 107.511C7.73222 107.595 7.39901 107.706 7.07526 107.843V106.877C7.20339 106.827 7.34623 106.779 7.50378 106.732C7.66132 106.686 7.82937 106.643 8.00371 106.606C8.17806 106.57 8.36291 106.54 8.55406 106.516C8.74625 106.494 8.93944 106.483 9.13277 106.483C9.45585 106.479 9.77805 106.52 10.0906 106.606C10.3537 106.677 10.5998 106.805 10.8132 106.981C11.0106 107.151 11.1659 107.368 11.2659 107.615C11.3769 107.901 11.4309 108.208 11.4245 108.516V112.778H10.5087ZM10.3973 109.962H9.10652C8.88562 109.958 8.66522 109.986 8.45114 110.043C8.28792 110.086 8.13467 110.164 8.00056 110.271C7.88728 110.364 7.79805 110.485 7.74114 110.624C7.68267 110.772 7.65371 110.93 7.65607 111.09C7.65539 111.206 7.67314 111.322 7.70858 111.432C7.74416 111.541 7.80229 111.64 7.87873 111.722C7.96473 111.811 8.06838 111.879 8.18226 111.921C8.32888 111.974 8.48319 111.999 8.63809 111.995C8.91837 111.984 9.19295 111.909 9.44261 111.774C9.79302 111.589 10.1149 111.35 10.3973 111.063V109.962Z" fill="#CD1844"/>
<path d="M4.8392 112.537C4.5578 112.656 4.26574 112.745 3.96746 112.802C3.65723 112.86 3.34261 112.889 3.02745 112.888C2.59779 112.895 2.17009 112.826 1.76185 112.685C1.40606 112.561 1.08099 112.355 0.810293 112.082C0.540979 111.802 0.335852 111.461 0.210578 111.086C0.0642649 110.646 -0.00685846 110.183 0.00052055 109.718C-0.00593951 109.254 0.0702995 108.792 0.225282 108.358C0.365208 107.967 0.581732 107.613 0.860706 107.317C1.14046 107.024 1.47635 106.797 1.84588 106.653C2.25558 106.492 2.69016 106.414 3.12723 106.421C3.45284 106.417 3.7783 106.438 4.10085 106.485C4.34057 106.524 4.57771 106.579 4.81084 106.649V108.109C4.56047 107.978 4.29645 107.879 4.02417 107.813C3.76137 107.744 3.49171 107.706 3.2207 107.703C2.97635 107.699 2.73376 107.747 2.50756 107.844C2.30474 107.933 2.12292 108.067 1.97506 108.238C1.82605 108.416 1.71375 108.625 1.64527 108.851C1.56693 109.107 1.52862 109.374 1.53184 109.643C1.52745 109.917 1.56904 110.191 1.65472 110.45C1.72906 110.676 1.8471 110.882 2.00132 111.057C2.15322 111.224 2.33778 111.354 2.54222 111.439C2.7659 111.53 3.00405 111.575 3.24381 111.571C3.37585 111.571 3.50773 111.561 3.63872 111.544C3.77829 111.525 3.91679 111.498 4.05358 111.463C4.19222 111.428 4.32771 111.389 4.46319 111.343C4.59868 111.298 4.72367 111.248 4.84025 111.195L4.8392 112.537Z" fill="#CD1844"/>
<path d="M17.9688 111.09C17.9721 111.291 17.9363 111.49 17.8638 111.675C17.795 111.845 17.6979 112 17.5771 112.134C17.4539 112.269 17.3123 112.384 17.157 112.475C16.9946 112.572 16.8232 112.65 16.6455 112.709C16.4633 112.771 16.2764 112.817 16.0867 112.845C15.901 112.873 15.7136 112.888 15.5259 112.888C15.1601 112.89 14.7944 112.872 14.4304 112.833C14.1003 112.796 13.7729 112.737 13.4505 112.654V111.669C13.7863 111.77 14.128 111.849 14.4735 111.903C14.8083 111.956 15.1464 111.983 15.4849 111.983C15.9751 111.983 16.3356 111.913 16.5667 111.774C16.6729 111.72 16.7623 111.635 16.8244 111.529C16.8865 111.423 16.9188 111.301 16.9175 111.176C16.9188 111.073 16.8998 110.971 16.8618 110.876C16.8151 110.776 16.7459 110.69 16.6602 110.624C16.5203 110.521 16.3681 110.437 16.2075 110.375C16.0027 110.289 15.7223 110.19 15.3673 110.08C15.1167 110.003 14.8711 109.91 14.6321 109.8C14.4231 109.704 14.2277 109.579 14.0513 109.427C13.8912 109.288 13.7597 109.116 13.6648 108.922C13.567 108.709 13.5188 108.475 13.524 108.238C13.5289 108.043 13.5677 107.851 13.6385 107.671C13.725 107.451 13.8579 107.256 14.0271 107.099C14.2447 106.901 14.497 106.751 14.7697 106.656C15.148 106.529 15.5439 106.471 15.9407 106.483C16.1718 106.483 16.426 106.495 16.7075 106.522C17.0017 106.551 17.2941 106.598 17.5834 106.661V107.615C17.2835 107.538 16.9799 107.477 16.6738 107.434C16.4273 107.399 16.179 107.38 15.9302 107.376C15.7152 107.372 15.5004 107.393 15.2896 107.437C15.1414 107.468 14.9993 107.525 14.8694 107.606C14.7761 107.664 14.6989 107.746 14.6459 107.845C14.5929 107.945 14.566 108.057 14.568 108.171C14.567 108.275 14.5881 108.378 14.63 108.472C14.6835 108.578 14.762 108.669 14.8579 108.734C15.0028 108.837 15.1586 108.922 15.3221 108.986C15.5217 109.07 15.78 109.162 16.1004 109.261C16.4002 109.348 16.6934 109.459 16.9774 109.593C17.1878 109.692 17.3828 109.823 17.5561 109.983C17.6961 110.118 17.804 110.285 17.8712 110.471C17.9389 110.67 17.972 110.879 17.9688 111.09V111.09Z" fill="#CD1844"/>
<path d="M24.5531 111.09C24.5558 111.291 24.5201 111.49 24.4481 111.675C24.3793 111.845 24.2822 112 24.1614 112.134C24.0383 112.269 23.8967 112.384 23.7412 112.475C23.5793 112.572 23.4083 112.65 23.2308 112.709C23.0486 112.771 22.8616 112.817 22.672 112.845C22.4863 112.873 22.2989 112.888 22.1112 112.888C21.7454 112.89 21.3797 112.872 21.0157 112.833C20.6856 112.797 20.3582 112.737 20.0358 112.654V111.669C20.3716 111.77 20.7133 111.849 21.0588 111.903C21.3936 111.956 21.7317 111.983 22.0702 111.983C22.5562 111.983 22.9168 111.913 23.152 111.774C23.2578 111.72 23.3468 111.635 23.4089 111.53C23.471 111.425 23.5035 111.303 23.5028 111.18C23.5041 111.077 23.4851 110.975 23.4472 110.88C23.4004 110.78 23.3312 110.693 23.2455 110.627C23.1054 110.524 22.9528 110.44 22.7918 110.378C22.588 110.292 22.3076 110.194 21.9515 110.083C21.701 110.007 21.4554 109.913 21.2163 109.803C21.007 109.707 20.8113 109.582 20.6345 109.43C20.4736 109.291 20.3417 109.118 20.2469 108.922C20.1492 108.709 20.1009 108.475 20.1062 108.238C20.111 108.043 20.1498 107.851 20.2207 107.671C20.3064 107.451 20.4394 107.255 20.6093 107.099C20.8267 106.901 21.0791 106.751 21.3518 106.656C21.7293 106.529 22.1246 106.469 22.5208 106.481C22.7508 106.481 23.006 106.493 23.2865 106.52C23.581 106.549 23.8738 106.596 24.1635 106.659V107.613C23.8636 107.535 23.56 107.475 23.2539 107.432C23.007 107.397 22.7583 107.377 22.5093 107.374C22.2942 107.37 22.0794 107.39 21.8686 107.435C21.7204 107.466 21.5783 107.523 21.4485 107.604C21.3507 107.665 21.2707 107.752 21.2174 107.858C21.1703 107.954 21.1461 108.06 21.147 108.169C21.146 108.273 21.1672 108.375 21.209 108.47C21.2624 108.576 21.3405 108.666 21.4359 108.732C21.5813 108.834 21.7374 108.919 21.9011 108.984C22.1007 109.068 22.3591 109.16 22.6794 109.259C22.979 109.346 23.2718 109.457 23.5553 109.591C23.766 109.689 23.9611 109.821 24.134 109.981C24.274 110.116 24.3819 110.283 24.4491 110.469C24.5193 110.668 24.5545 110.878 24.5531 111.09V111.09Z" fill="#CD1844"/>
<path d="M28.4843 107.48H26.7493V106.595H29.5136V111.886H31.2613V112.779H26.556V111.886H28.4843V107.48ZM28.8414 104C28.9496 103.999 29.0567 104.022 29.1565 104.065C29.252 104.107 29.3384 104.169 29.4107 104.247C29.4821 104.325 29.5397 104.415 29.5808 104.515C29.6606 104.725 29.6606 104.96 29.5808 105.171C29.5408 105.272 29.4831 105.364 29.4107 105.442C29.3382 105.52 29.2518 105.581 29.1565 105.623C29.0567 105.667 28.9496 105.689 28.8414 105.689C28.7333 105.69 28.6261 105.667 28.5263 105.623C28.4309 105.581 28.3445 105.52 28.2722 105.442C28.1995 105.364 28.142 105.272 28.1031 105.171C28.0205 104.961 28.0205 104.725 28.1031 104.515C28.1431 104.415 28.2004 104.324 28.2722 104.247C28.3442 104.169 28.4307 104.107 28.5263 104.065C28.6261 104.021 28.7333 103.999 28.8414 104V104Z" fill="#CD1844"/>
<path d="M36.7007 112.778L36.6776 111.945C36.399 112.248 36.0687 112.493 35.704 112.667C35.3759 112.814 35.0229 112.889 34.6663 112.888C34.3747 112.896 34.0841 112.85 33.8072 112.753C33.588 112.675 33.3876 112.547 33.2201 112.379C33.0679 112.225 32.9518 112.036 32.8808 111.826C32.808 111.602 32.7724 111.367 32.7758 111.13C32.7758 110.51 32.9946 110.025 33.4322 109.674C33.8723 109.322 34.5193 109.147 35.3774 109.147H36.5894V108.605C36.5964 108.442 36.5704 108.279 36.5129 108.128C36.4555 107.977 36.3681 107.84 36.2565 107.727C36.0338 107.506 35.6946 107.395 35.2387 107.395C34.9093 107.394 34.5809 107.433 34.2599 107.511C33.9205 107.595 33.5877 107.706 33.2642 107.843V106.877C33.3923 106.827 33.5352 106.779 33.6927 106.732C33.8503 106.686 34.0173 106.643 34.1927 106.606C34.3681 106.57 34.5519 106.54 34.743 106.516C34.9352 106.494 35.1284 106.483 35.3217 106.483C35.6448 106.479 35.967 106.52 36.2796 106.606C36.5424 106.677 36.7882 106.804 37.0011 106.981C37.199 107.151 37.3547 107.368 37.4548 107.615C37.5658 107.901 37.6198 108.208 37.6134 108.516V112.778H36.7007ZM36.5894 109.962H35.2976C35.077 109.959 34.857 109.986 34.6432 110.043C34.4799 110.086 34.3266 110.164 34.1927 110.271C34.0794 110.364 33.9899 110.486 33.9322 110.624C33.8746 110.772 33.846 110.93 33.8482 111.09C33.8475 111.206 33.8652 111.322 33.9007 111.432C33.9359 111.541 33.9937 111.64 34.0698 111.722C34.1559 111.811 34.2595 111.879 34.3733 111.921C34.5203 111.974 34.6749 111.999 34.8302 111.995C35.1101 111.984 35.3843 111.908 35.6337 111.774C35.9845 111.589 36.3068 111.35 36.5894 111.063V109.962Z" fill="#CD1844"/>
<path d="M39.651 106.594H40.5564L40.5973 107.59C40.749 107.399 40.9151 107.221 41.0941 107.058C41.2394 106.926 41.3975 106.812 41.5657 106.716C41.7133 106.632 41.8713 106.571 42.0352 106.534C42.199 106.499 42.3658 106.481 42.533 106.482C43.1373 106.482 43.5924 106.67 43.8984 107.045C44.2044 107.421 44.3608 107.987 44.3678 108.745V112.779H43.3533V108.829C43.3533 108.345 43.2675 107.986 43.096 107.755C42.9248 107.523 42.6695 107.406 42.3303 107.406C42.2064 107.406 42.0831 107.426 41.9648 107.465C41.8316 107.512 41.7062 107.581 41.593 107.668C41.4416 107.785 41.301 107.916 41.1729 108.06C41.0216 108.224 40.8578 108.429 40.6666 108.675V112.778H39.65L39.651 106.594Z" fill="#CD1844"/>
<path d="M51.3418 109.637C51.3465 110.086 51.2812 110.532 51.1485 110.958C51.0314 111.337 50.8423 111.687 50.5929 111.986C50.3484 112.273 50.0472 112.5 49.7107 112.65C49.3367 112.813 48.9349 112.894 48.5301 112.887C48.1441 112.894 47.7603 112.824 47.399 112.68C47.0753 112.551 46.785 112.343 46.5514 112.074C46.3081 111.786 46.1265 111.446 46.0189 111.078C45.8902 110.637 45.8282 110.178 45.8351 109.717C45.8312 109.274 45.8962 108.834 46.0273 108.413C46.1454 108.036 46.3344 107.689 46.5829 107.391C46.8271 107.103 47.1288 106.876 47.4662 106.727C47.84 106.563 48.2419 106.482 48.6467 106.49C49.0327 106.483 49.4165 106.553 49.7779 106.696C50.1009 106.826 50.3913 107.033 50.6265 107.3C50.8684 107.585 51.0496 107.922 51.158 108.287C51.2862 108.724 51.3483 109.18 51.3418 109.637V109.637ZM50.3009 109.686C50.3058 109.349 50.2655 109.014 50.1812 108.69C50.1134 108.43 49.9974 108.188 49.8399 107.976C49.6957 107.788 49.51 107.64 49.299 107.544C49.0738 107.446 48.8318 107.397 48.5879 107.401C48.317 107.392 48.0485 107.457 47.8075 107.588C47.5956 107.709 47.4136 107.881 47.2761 108.09C47.1326 108.311 47.0293 108.558 46.9715 108.819C46.9069 109.105 46.8744 109.398 46.8749 109.691C46.8699 110.03 46.9105 110.368 46.9957 110.695C47.0624 110.956 47.1785 111.2 47.337 111.412C47.4809 111.6 47.6657 111.748 47.8758 111.844C48.1011 111.943 48.3436 111.993 48.5879 111.989C48.8593 111.997 49.1282 111.932 49.3693 111.8C49.581 111.679 49.7629 111.507 49.9008 111.299C50.0436 111.077 50.1464 110.83 50.2043 110.569C50.2705 110.28 50.303 109.983 50.3009 109.686V109.686Z" fill="#CD1844"/>
<path d="M57.3442 112.778L55.9872 110.675L54.6218 112.778H52.9004L55.1281 109.624L53.0159 106.52H54.7521L56.0849 108.577L57.3998 106.52H59.0026L56.9556 109.612L59.1128 112.778H57.3442Z" fill="#4583C4"/>
<path d="M63.9956 112.778L63.9725 111.945C63.694 112.248 63.3641 112.493 63 112.667C62.6719 112.814 62.3188 112.889 61.9623 112.888C61.6703 112.896 61.3793 112.85 61.1021 112.753C60.8829 112.675 60.6825 112.547 60.515 112.379C60.3628 112.225 60.2467 112.036 60.1757 111.826C60.1029 111.602 60.0673 111.367 60.0707 111.13C60.0707 110.51 60.2899 110.025 60.7282 109.674C61.1665 109.322 61.8145 109.147 62.6723 109.147H63.8875V108.605C63.8945 108.442 63.8684 108.279 63.811 108.128C63.7536 107.977 63.6661 107.84 63.5545 107.727C63.3319 107.506 62.9937 107.395 62.5368 107.395C62.2077 107.394 61.8796 107.433 61.559 107.511C61.2192 107.595 60.886 107.706 60.5622 107.843V106.877C60.6904 106.827 60.8332 106.779 60.9908 106.732C61.1483 106.686 61.3163 106.643 61.4907 106.606C61.665 106.57 61.8499 106.54 62.041 106.516C62.2332 106.494 62.4264 106.483 62.6198 106.483C62.9428 106.479 63.265 106.52 63.5776 106.606C63.8404 106.677 64.0862 106.804 64.2992 106.981C64.4971 107.151 64.6528 107.368 64.7529 107.615C64.8639 107.901 64.9179 108.208 64.9115 108.516V112.778H63.9956ZM63.8843 109.962H62.5935C62.3726 109.958 62.1522 109.986 61.9381 110.043C61.7748 110.086 61.6215 110.164 61.4875 110.271C61.3743 110.364 61.2847 110.486 61.2271 110.624C61.1695 110.772 61.1409 110.93 61.1431 111.09C61.1424 111.206 61.1601 111.322 61.1956 111.432C61.2311 111.541 61.2893 111.64 61.3657 111.722C61.4515 111.811 61.5548 111.879 61.6682 111.921C61.8152 111.974 61.9698 111.999 62.1251 111.995C62.4053 111.984 62.6799 111.909 62.9296 111.774C63.28 111.589 63.6019 111.35 63.8843 111.063V109.962Z" fill="#4583C4"/>
<path d="M66.259 106.594H67.4143L68.8511 110.688L69.1662 111.684L69.4876 110.662L70.9139 106.597H72.0261L69.7229 112.781H68.5602L66.259 106.594Z" fill="#4583C4"/>
<path d="M75.3871 107.48H73.653V106.595H76.4184V111.886H78.1651V112.779H73.4608V111.886H75.3871V107.48ZM75.7431 104C75.8512 103.999 75.9584 104.022 76.0582 104.065C76.1539 104.107 76.2405 104.168 76.3124 104.247C76.3841 104.324 76.4418 104.415 76.4825 104.515C76.5637 104.725 76.5637 104.96 76.4825 105.171C76.4428 105.272 76.3851 105.364 76.3124 105.442C76.2402 105.52 76.1537 105.582 76.0582 105.623C75.8562 105.71 75.63 105.71 75.428 105.623C75.3326 105.581 75.2462 105.52 75.1738 105.442C75.1015 105.364 75.044 105.272 75.0047 105.171C74.9222 104.961 74.9222 104.725 75.0047 104.515C75.0451 104.415 75.1024 104.324 75.1738 104.247C75.2459 104.169 75.3324 104.107 75.428 104.065C75.5285 104.021 75.6364 103.999 75.7452 104H75.7431Z" fill="#4583C4"/>
<path d="M84.9163 109.259C84.9163 109.411 84.9237 109.539 84.9237 109.64C84.9237 109.742 84.9237 109.841 84.9163 109.93L80.7971 110.09C80.8195 110.722 81.004 111.201 81.3506 111.528C81.6972 111.855 82.1873 112.006 82.821 111.98C82.9922 111.973 83.1634 111.96 83.3346 111.938C83.5058 111.916 83.6696 111.891 83.8293 111.86C83.9889 111.829 84.1444 111.796 84.2851 111.761C84.4258 111.725 84.5645 111.684 84.6874 111.643L84.7178 112.522C84.4133 112.624 84.1023 112.703 83.7873 112.759C83.4301 112.825 83.069 112.864 82.7065 112.877C82.2656 112.905 81.8235 112.849 81.401 112.713C81.056 112.597 80.7428 112.394 80.4883 112.122C80.238 111.842 80.0506 111.506 79.9401 111.139C79.8098 110.706 79.739 110.255 79.73 109.801C79.713 109.382 79.7587 108.964 79.8655 108.56C79.9631 108.184 80.1274 107.83 80.3497 107.518C80.5756 107.202 80.8672 106.944 81.2022 106.765C81.5372 106.586 81.9067 106.491 82.2822 106.485C82.6508 106.463 83.0201 106.516 83.3693 106.643C83.6771 106.758 83.9566 106.944 84.1874 107.187C84.4204 107.439 84.5995 107.741 84.7126 108.072C84.8397 108.454 84.9084 108.854 84.9163 109.259V109.259ZM83.8534 109.148C83.8576 108.893 83.8221 108.639 83.7484 108.397C83.6846 108.184 83.5794 107.988 83.4396 107.82C83.3009 107.66 83.1296 107.535 82.9386 107.455C82.7211 107.367 82.4884 107.329 82.256 107.344C82.0463 107.35 81.8404 107.404 81.6531 107.504C81.4736 107.599 81.3165 107.736 81.1931 107.903C81.0603 108.084 80.9587 108.288 80.8927 108.506C80.8159 108.753 80.7734 109.01 80.7666 109.27L83.8534 109.148Z" fill="#4583C4"/>
<path d="M86.7942 106.594H87.7237L87.7531 107.734C88.0372 107.352 88.3849 107.028 88.7793 106.778C89.0897 106.589 89.4409 106.488 89.7991 106.483C90.4069 106.483 90.8676 106.691 91.1813 107.105C91.495 107.52 91.6403 108.136 91.6172 108.953H90.5889C90.5994 108.41 90.5242 108.017 90.3631 107.772C90.2842 107.653 90.1775 107.556 90.0533 107.492C89.929 107.428 89.7913 107.398 89.6531 107.406C89.5124 107.407 89.3728 107.433 89.2404 107.484C89.0873 107.543 88.9436 107.626 88.8139 107.73C88.6485 107.862 88.4932 108.007 88.3497 108.164C88.1642 108.368 87.989 108.582 87.8246 108.805V112.778H86.7963L86.7942 106.594Z" fill="#4583C4"/>
</svg>
