<svg xmlns="http://www.w3.org/2000/svg" viewBox="0 0 875.95 985"><defs><style>.cls-1{fill:#fff;}.cls-2{fill:#4583c4;}.cls-3{fill:#feeb17;}.cls-4{fill:#cd1844;}.cls-5{fill:#20201e;}</style></defs><g id="vermelho"><path class="cls-1" d="M979.35,43.44h0a15.77,15.77,0,0,0-11.16,4.62L564.44,451.81a15.77,15.77,0,0,1-22.32,0L133.75,43.44h-8.93V81.53a15.81,15.81,0,0,0,4.62,11.16l385.9,385.9a15.77,15.77,0,0,1,0,22.32l-385.9,385.9A15.81,15.81,0,0,0,124.82,898v38.09h8.93L542.12,527.69a15.77,15.77,0,0,1,22.32,0L968.19,931.44a15.77,15.77,0,0,0,11.16,4.62h0a15.78,15.78,0,0,0,11.16-26.94L582.29,500.91a15.79,15.79,0,0,1,0-22.32L990.51,70.38A15.78,15.78,0,0,0,979.35,43.44Z" transform="translate(-119.21 -43.44)"/><polygon class="cls-2" points="435.08 421.05 830.87 25.26 856.13 0 14.03 0 39.3 25.26 435.08 421.05"/><polygon class="cls-3" points="409.82 446.31 46.03 67.37 5.61 25.26 5.61 867.36 46.03 825.25 409.82 446.31"/><polygon class="cls-4" points="435.08 471.57 39.3 867.36 14.03 892.62 856.13 892.62 830.87 867.36 435.08 471.57"/></g><g id="a"><path class="cls-5" d="M219.28,1027.44l-.22-7.52a30.33,30.33,0,0,1-9.26,6.52,25.07,25.07,0,0,1-9.88,2,24.16,24.16,0,0,1-8.19-1.22,15.21,15.21,0,0,1-5.59-3.38,13,13,0,0,1-3.23-5,18.78,18.78,0,0,1-1-6.29q0-8.4,6.26-13.16t18.51-4.76h11.57v-4.9a10.34,10.34,0,0,0-3.17-7.93q-3.17-3-9.69-3a41.09,41.09,0,0,0-9.31,1.05,65.4,65.4,0,0,0-9.49,3v-8.73c1.22-.45,2.58-.89,4.08-1.31s3.1-.81,4.76-1.14,3.42-.6,5.24-.81a50.31,50.31,0,0,1,5.51-.3,34.17,34.17,0,0,1,9.12,1.11,18.56,18.56,0,0,1,6.88,3.39,15,15,0,0,1,4.31,5.73,20.32,20.32,0,0,1,1.51,8.14v38.51ZM218.22,1002H205.93a23.65,23.65,0,0,0-6.24.73,11.91,11.91,0,0,0-4.29,2.06,8.12,8.12,0,0,0-2.47,3.19,10.5,10.5,0,0,0-.81,4.21,9.44,9.44,0,0,0,.5,3.09,7,7,0,0,0,1.62,2.62,7.79,7.79,0,0,0,2.89,1.8,12.53,12.53,0,0,0,4.34.67,18.32,18.32,0,0,0,7.66-2,37,37,0,0,0,9.09-6.42Z" transform="translate(-119.21 -43.44)"/></g><g id="c"><path class="cls-5" d="M165.3,1025.27a42.9,42.9,0,0,1-8.3,2.39,49.85,49.85,0,0,1-8.95.78A36.9,36.9,0,0,1,136,1026.6a24,24,0,0,1-9.06-5.45,23.62,23.62,0,0,1-5.71-9,35.53,35.53,0,0,1-2-12.36,33.54,33.54,0,0,1,2.14-12.29,26.8,26.8,0,0,1,6.05-9.41,26.35,26.35,0,0,1,9.38-6A33.39,33.39,0,0,1,149,970a61.76,61.76,0,0,1,9.27.58,54.49,54.49,0,0,1,6.76,1.48v13.19a34.06,34.06,0,0,0-7.49-2.67,33.05,33.05,0,0,0-7.65-1,17.23,17.23,0,0,0-6.79,1.28,14.22,14.22,0,0,0-5.07,3.56,15.5,15.5,0,0,0-3.14,5.54,22.34,22.34,0,0,0-1.08,7.15,21.14,21.14,0,0,0,1.17,7.3,15.53,15.53,0,0,0,3.3,5.48,14.42,14.42,0,0,0,5.15,3.45,17.89,17.89,0,0,0,6.68,1.2,31.35,31.35,0,0,0,3.76-.25,36.94,36.94,0,0,0,3.95-.73c1.32-.32,2.61-.67,3.9-1.08s2.48-.86,3.59-1.34Z" transform="translate(-119.21 -43.44)"/></g><g id="s"><path class="cls-5" d="M290.31,1012.19a13.31,13.31,0,0,1-1,5.29,13.93,13.93,0,0,1-2.73,4.14,17.07,17.07,0,0,1-4,3.09,25.59,25.59,0,0,1-4.87,2.11,31.63,31.63,0,0,1-5.32,1.23,37.74,37.74,0,0,1-5.34.39,98.3,98.3,0,0,1-10.43-.5,70.21,70.21,0,0,1-9.33-1.62v-8.9a76.88,76.88,0,0,0,9.74,2.12,65.44,65.44,0,0,0,9.63.72q7,0,10.3-1.89a5.93,5.93,0,0,0,3.34-5.4,6.75,6.75,0,0,0-.53-2.71,6.19,6.19,0,0,0-1.92-2.28,18.51,18.51,0,0,0-4.31-2.25c-1.95-.78-4.62-1.67-8-2.67a56.82,56.82,0,0,1-7-2.53,23.56,23.56,0,0,1-5.53-3.37,14.5,14.5,0,0,1-3.68-4.56,13.47,13.47,0,0,1-1.34-6.18,14.39,14.39,0,0,1,1.09-5.13,14.09,14.09,0,0,1,3.7-5.17,20.88,20.88,0,0,1,7.07-4A33.48,33.48,0,0,1,271,970.56c2.2,0,4.62.11,7.3.35a76.09,76.09,0,0,1,8.34,1.26v8.62a82,82,0,0,0-8.66-1.64,58.5,58.5,0,0,0-7.08-.52,28.42,28.42,0,0,0-6.1.55,12.63,12.63,0,0,0-4,1.53,5.78,5.78,0,0,0-2.87,5.1,6.26,6.26,0,0,0,.59,2.72,6.39,6.39,0,0,0,2.17,2.37,21.47,21.47,0,0,0,4.42,2.28c1.9.76,4.36,1.59,7.41,2.48a58.77,58.77,0,0,1,8.35,3,21.91,21.91,0,0,1,5.51,3.53,11.46,11.46,0,0,1,3,4.41A15.77,15.77,0,0,1,290.31,1012.19Z" transform="translate(-119.21 -43.44)"/></g><g id="s2"><path class="cls-5" d="M353,1012.19a13.48,13.48,0,0,1-1,5.29,13.93,13.93,0,0,1-2.73,4.14,16.93,16.93,0,0,1-4,3.09,25.22,25.22,0,0,1-4.86,2.11,31.85,31.85,0,0,1-5.32,1.23,37.74,37.74,0,0,1-5.34.39,98.17,98.17,0,0,1-10.43-.5,69.93,69.93,0,0,1-9.33-1.62v-8.9a76.51,76.51,0,0,0,9.74,2.12,65.44,65.44,0,0,0,9.63.72q6.94,0,10.3-1.89A5.93,5.93,0,0,0,343,1013a6.75,6.75,0,0,0-.53-2.71,6.19,6.19,0,0,0-1.92-2.28,18.4,18.4,0,0,0-4.32-2.25c-1.94-.78-4.61-1.67-8-2.67a57.26,57.26,0,0,1-7-2.53,23.63,23.63,0,0,1-5.54-3.37A14.46,14.46,0,0,1,312,992.6a13.47,13.47,0,0,1-1.34-6.18,14.39,14.39,0,0,1,1.09-5.13,13.86,13.86,0,0,1,3.7-5.17,20.78,20.78,0,0,1,7.07-4,33.48,33.48,0,0,1,11.13-1.58c2.19,0,4.62.11,7.29.35a75.9,75.9,0,0,1,8.35,1.26v8.62a82,82,0,0,0-8.66-1.64,58.51,58.51,0,0,0-7.09-.52,28.49,28.49,0,0,0-6.1.55,12.56,12.56,0,0,0-4,1.53,5.84,5.84,0,0,0-2.2,2.29,6,6,0,0,0-.67,2.81,6.26,6.26,0,0,0,.59,2.72,6.44,6.44,0,0,0,2.16,2.37,21.86,21.86,0,0,0,4.43,2.28c1.9.76,4.36,1.59,7.41,2.48a58.15,58.15,0,0,1,8.34,3,21.55,21.55,0,0,1,5.51,3.53,11.49,11.49,0,0,1,3,4.41A15.78,15.78,0,0,1,353,1012.19Z" transform="translate(-119.21 -43.44)"/></g><g id="i"><path class="cls-5" d="M390.43,979.57H373.91v-8h26.32v47.81h16.64v8.07h-44.8v-8.07h18.36Zm3.4-31.45a7.69,7.69,0,0,1,3,.59,7.31,7.31,0,0,1,2.42,1.64,8.22,8.22,0,0,1,1.62,2.42,8,8,0,0,1,0,5.93,7.87,7.87,0,0,1-1.62,2.45,7.46,7.46,0,0,1-2.42,1.64,7.69,7.69,0,0,1-3,.59,7.61,7.61,0,0,1-3-.59,7.35,7.35,0,0,1-2.42-1.64,7.51,7.51,0,0,1-1.61-2.45,7.75,7.75,0,0,1,0-5.93,7.82,7.82,0,0,1,1.61-2.42,7.2,7.2,0,0,1,2.42-1.64A7.61,7.61,0,0,1,393.83,948.12Z" transform="translate(-119.21 -43.44)"/></g><g id="a2"><path class="cls-5" d="M468.66,1027.44l-.22-7.52a30.36,30.36,0,0,1-9.27,6.52,25.07,25.07,0,0,1-9.88,2,24.1,24.1,0,0,1-8.18-1.22,15.13,15.13,0,0,1-5.59-3.38,13,13,0,0,1-3.23-5,18.53,18.53,0,0,1-1-6.29q0-8.4,6.25-13.16c4.19-3.18,10.35-4.76,18.52-4.76H467.6v-4.9a10.34,10.34,0,0,0-3.17-7.93q-3.18-3-9.69-3a41.11,41.11,0,0,0-9.32,1.05,65.67,65.67,0,0,0-9.48,3v-8.73c1.22-.45,2.58-.89,4.08-1.31s3.09-.81,4.76-1.14,3.42-.6,5.24-.81a50.31,50.31,0,0,1,5.51-.3,34.17,34.17,0,0,1,9.12,1.11,18.44,18.44,0,0,1,6.87,3.39,14.94,14.94,0,0,1,4.32,5.73,20.32,20.32,0,0,1,1.51,8.14v38.51ZM467.6,1002H455.3a23.62,23.62,0,0,0-6.23.73,11.83,11.83,0,0,0-4.29,2.06,8.24,8.24,0,0,0-2.48,3.19,10.68,10.68,0,0,0-.8,4.21,9.44,9.44,0,0,0,.5,3.09,7,7,0,0,0,1.61,2.62,7.87,7.87,0,0,0,2.89,1.8,12.63,12.63,0,0,0,4.35.67,18.32,18.32,0,0,0,7.65-2,36.88,36.88,0,0,0,9.1-6.42Z" transform="translate(-119.21 -43.44)"/></g><g id="n"><path class="cls-5" d="M496.75,971.56h8.62l.39,9a41.69,41.69,0,0,1,4.73-4.81,25.84,25.84,0,0,1,4.49-3.09,16.91,16.91,0,0,1,4.47-1.64,23,23,0,0,1,4.74-.47q8.63,0,13,5.09T541.66,991v36.45H532V991.76q0-6.57-2.45-9.71c-1.63-2.09-4.06-3.15-7.29-3.15a11.7,11.7,0,0,0-3.48.53,12.94,12.94,0,0,0-3.54,1.84,28.49,28.49,0,0,0-4,3.54c-1.44,1.48-3,3.33-4.82,5.56v37.07h-9.68Z" transform="translate(-119.21 -43.44)"/></g><g id="o"><path class="cls-5" d="M608.06,999.06a37,37,0,0,1-1.84,11.94,26.56,26.56,0,0,1-5.29,9.29,23.85,23.85,0,0,1-8.4,6,28.2,28.2,0,0,1-11.24,2.14,29.17,29.17,0,0,1-10.77-1.87,21.06,21.06,0,0,1-8.07-5.48,24.26,24.26,0,0,1-5.07-9,39.69,39.69,0,0,1-1.75-12.3A36.65,36.65,0,0,1,557.46,988a26.67,26.67,0,0,1,5.29-9.24,23.55,23.55,0,0,1,8.41-6,28,28,0,0,1,11.24-2.14,29.17,29.17,0,0,1,10.77,1.86,21.51,21.51,0,0,1,8.08,5.46,24.26,24.26,0,0,1,5.06,8.92A39.31,39.31,0,0,1,608.06,999.06Zm-9.91.44a32.23,32.23,0,0,0-1.14-9,18.36,18.36,0,0,0-3.25-6.45,13.4,13.4,0,0,0-5.15-3.9,17,17,0,0,0-6.77-1.3,15.25,15.25,0,0,0-7.43,1.69,14.72,14.72,0,0,0-5.06,4.54,19.56,19.56,0,0,0-2.9,6.59,33.74,33.74,0,0,0-.92,7.88,32.36,32.36,0,0,0,1.15,9.07,18.09,18.09,0,0,0,3.25,6.48,13.48,13.48,0,0,0,5.13,3.9,16.8,16.8,0,0,0,6.78,1.31,15.26,15.26,0,0,0,7.44-1.7,14.8,14.8,0,0,0,5.06-4.53,19.77,19.77,0,0,0,2.89-6.6A33,33,0,0,0,598.15,999.5Z" transform="translate(-119.21 -43.44)"/></g><g id="x-2" data-name="x"><path class="cls-5" d="M665.21,1027.44l-12.92-19-13,19H622.9l21.21-28.5L624,970.89h16.53l12.69,18.59,12.52-18.59H681l-19.49,27.94,20.54,28.61Z" transform="translate(-119.21 -43.44)"/></g><g id="a3"><path class="cls-5" d="M728.54,1027.44l-.22-7.52a30.45,30.45,0,0,1-9.26,6.52,25.07,25.07,0,0,1-9.88,2,24.12,24.12,0,0,1-8.19-1.22,15.13,15.13,0,0,1-5.59-3.38,13,13,0,0,1-3.23-5,18.53,18.53,0,0,1-1-6.29q0-8.4,6.26-13.16t18.51-4.76h11.57v-4.9a10.34,10.34,0,0,0-3.17-7.93c-2.12-2-5.34-3-9.69-3a41,41,0,0,0-9.31,1.05,65.4,65.4,0,0,0-9.49,3v-8.73c1.22-.45,2.58-.89,4.08-1.31s3.1-.81,4.76-1.14,3.42-.6,5.24-.81a50.31,50.31,0,0,1,5.51-.3,34.17,34.17,0,0,1,9.12,1.11,18.44,18.44,0,0,1,6.87,3.39,14.94,14.94,0,0,1,4.32,5.73,20.32,20.32,0,0,1,1.51,8.14v38.51ZM727.48,1002H715.19a23.65,23.65,0,0,0-6.24.73,11.83,11.83,0,0,0-4.29,2.06,8.24,8.24,0,0,0-2.48,3.19,10.68,10.68,0,0,0-.8,4.21,9.44,9.44,0,0,0,.5,3.09,7,7,0,0,0,1.62,2.62,7.83,7.83,0,0,0,2.88,1.8,12.63,12.63,0,0,0,4.35.67,18.32,18.32,0,0,0,7.66-2,37,37,0,0,0,9.09-6.42Z" transform="translate(-119.21 -43.44)"/></g><g id="v"><path class="cls-5" d="M750.09,971.56h11l13.68,37,3,9,3.06-9.24,13.58-36.73H805l-21.93,55.88H772Z" transform="translate(-119.21 -43.44)"/></g><g id="i2"><path class="cls-5" d="M837,979.57H820.49v-8h26.33v47.81h16.63v8.07H818.66v-8.07H837Zm3.39-31.45a7.69,7.69,0,0,1,3,.59,7.11,7.11,0,0,1,2.42,1.64,8,8,0,0,1,1.62,2.42,7.87,7.87,0,0,1,0,5.93,7.7,7.7,0,0,1-1.62,2.45,7.25,7.25,0,0,1-2.42,1.64,7.95,7.95,0,0,1-6,0,7.35,7.35,0,0,1-2.42-1.64,7.67,7.67,0,0,1-1.61-2.45,7.75,7.75,0,0,1,0-5.93,8,8,0,0,1,1.61-2.42,7.2,7.2,0,0,1,2.42-1.64A7.65,7.65,0,0,1,840.41,948.12Z" transform="translate(-119.21 -43.44)"/></g><g id="e"><path class="cls-5" d="M927.73,995.64c0,1.38.07,2.53.07,3.45s0,1.81-.07,2.62l-39.22,1.44q.32,8.57,5.27,13t14,4.08c1.63-.06,3.26-.18,4.89-.38s3.19-.42,4.71-.7,3-.58,4.34-.9,2.66-.69,3.83-1.06l.29,7.94a65.16,65.16,0,0,1-8.86,2.14,73.72,73.72,0,0,1-10.29,1.07,35.34,35.34,0,0,1-12.43-1.48,21.37,21.37,0,0,1-8.69-5.34,23.25,23.25,0,0,1-5.22-8.89,43,43,0,0,1-2-12.09,36,36,0,0,1,1.29-11.21,28,28,0,0,1,4.61-9.42,23.42,23.42,0,0,1,18.4-9.33A27,27,0,0,1,913,972a20.85,20.85,0,0,1,7.79,4.92,22.29,22.29,0,0,1,5,8A34.52,34.52,0,0,1,927.73,995.64Zm-10.12-1a21.11,21.11,0,0,0-1-6.79,14.52,14.52,0,0,0-2.94-5.21,13,13,0,0,0-4.77-3.3,15.58,15.58,0,0,0-6.5-1,13.52,13.52,0,0,0-5.74,1.44,12.94,12.94,0,0,0-4.38,3.61,17.74,17.74,0,0,0-2.86,5.45,24.3,24.3,0,0,0-1.2,6.9Z" transform="translate(-119.21 -43.44)"/></g><g id="r"><path class="cls-5" d="M945.61,971.56h8.85l.28,10.3a36.06,36.06,0,0,1,9.77-8.64,19.94,19.94,0,0,1,9.71-2.66q8.68,0,13.16,5.62t4.15,16.7h-9.79q.15-7.36-2.15-10.67a7.73,7.73,0,0,0-6.76-3.31,11.9,11.9,0,0,0-3.93.7,15.55,15.55,0,0,0-4.06,2.23,37,37,0,0,0-4.42,3.92,73.58,73.58,0,0,0-5,5.79v35.9h-9.79Z" transform="translate(-119.21 -43.44)"/></g></svg>